<?xml version="1.0" encoding="utf-8"?>
<!-- Generator: Adobe Illustrator 16.0.0, SVG Export Plug-In . SVG Version: 6.00 Build 0)  -->
<!DOCTYPE svg PUBLIC "-//W3C//DTD SVG 1.1//EN" "http://www.w3.org/Graphics/SVG/1.1/DTD/svg11.dtd">
<svg version="1.1" id="Layer_1" xmlns="http://www.w3.org/2000/svg" xmlns:xlink="http://www.w3.org/1999/xlink" x="0px" y="0px"
	 width="96px" height="96px" viewBox="0 0 96 96" enable-background="new 0 0 96 96" xml:space="preserve">
<linearGradient id="SVGID_1_" gradientUnits="userSpaceOnUse" x1="1596.5518" y1="-1805.6563" x2="1898.4189" y2="-1805.6563" gradientTransform="matrix(0.2038 0 0 -0.2038 -266.6429 -329.4611)">
	<stop  offset="0" style="stop-color:#FFFFFF;stop-opacity:0"/>
	<stop  offset="0.14" style="stop-color:#FFFFFF;stop-opacity:0.22"/>
	<stop  offset="0.3" style="stop-color:#FFFFFF;stop-opacity:0.45"/>
	<stop  offset="0.45" style="stop-color:#FFFFFF;stop-opacity:0.65"/>
	<stop  offset="0.6" style="stop-color:#FFFFFF;stop-opacity:0.8"/>
	<stop  offset="0.73" style="stop-color:#FFFFFF;stop-opacity:0.91"/>
	<stop  offset="0.85" style="stop-color:#FFFFFF;stop-opacity:0.98"/>
	<stop  offset="0.94" style="stop-color:#FFFFFF"/>
</linearGradient>
<path fill="url(#SVGID_1_)" d="M90.028,48.396l-0.177,0.611H28.505V28.087H87.02c0.328,1.247,0.58,2.512,0.755,3.789
	c0.597,4.343,0.426,8.794,1.329,13.087C89.352,46.122,89.672,47.259,90.028,48.396z"/>
<g>
	<g>
		<path fill-rule="evenodd" clip-rule="evenodd" fill="#4EB448" d="M73.629,46.113c0.003,0.007,0.005,0.017,0.011,0.021
			c0.004,0.002,0.013-0.001,0.02-0.002c0-0.008,0.001-0.016,0.002-0.023C73.651,46.11,73.639,46.111,73.629,46.113z"/>
		<path fill-rule="evenodd" clip-rule="evenodd" fill="#4EB448" d="M80.266,50.348c0.019-0.08,0.027-0.16,0.035-0.24
			c0.011-0.113,0.062-0.191,0.176-0.219c0.065,0.016,0.123-0.002,0.177-0.039c0.328-0.08,0.354-0.332,0.316-0.596
			c-0.036-0.244-0.15-0.465-0.309-0.656c-0.07-0.084-0.118-0.136-0.023-0.253c0.278-0.345,0.267-0.61,0-0.958
			c-0.12-0.157-0.273-0.273-0.43-0.385c-0.144-0.104-0.163-0.161-0.013-0.29c0.403-0.342,0.367-0.603-0.108-0.853
			c-0.404-0.214-0.85-0.279-1.3-0.305c-0.48-0.027-0.917-0.163-1.299-0.462c-0.273-0.214-0.568-0.395-0.87-0.563
			c-0.064-0.036-0.167-0.042-0.159-0.161c0.024-0.014,0.048-0.035,0.075-0.041c1.418-0.359,2.706-0.169,3.788,0.898
			c0.184,0.181,0.385,0.356,0.673,0.259c0.285-0.096,0.313-0.358,0.326-0.602c0.012-0.213,0.095-0.202,0.248-0.136
			c0.375,0.161,0.756,0.311,1.162,0.37c0.558,0.08,0.723-0.104,0.598-0.645c-0.016-0.068-0.025-0.138-0.04-0.208
			c0.013-0.021,0.025-0.041,0.037-0.061c0.067-0.044,0.139-0.018,0.207-0.012c0.478,0.04,0.953,0.077,1.422-0.066
			c0.306-0.093,0.398-0.261,0.332-0.576c-0.034-0.166-0.114-0.303-0.224-0.425c-0.157-0.176-0.153-0.311,0.08-0.416
			c0.246-0.111,0.44-0.292,0.593-0.511c0.297-0.428,0.161-0.819-0.342-0.998c-0.038,0.012-0.076,0.023-0.115,0.034
			c0.016,0.056-0.002,0.103-0.023,0.15c0.021-0.047,0.039-0.094,0.023-0.15c0.039-0.011,0.077-0.022,0.115-0.034
			c-0.098-0.13-0.255-0.107-0.387-0.145c-0.163-0.046-0.377,0.047-0.495-0.073c-0.128-0.131,0.014-0.326,0.012-0.496
			c-0.004-0.404-0.188-0.669-0.492-0.628c-0.487,0.066-0.934,0.245-1.296,0.596l0.01,0.002c-0.038,0.012-0.075,0.026-0.113,0.038
			c-0.204,0.095-0.296,0.022-0.32-0.194c-0.015-0.136-0.051-0.276-0.2-0.341L82.09,39.94c-0.074-0.112-0.186-0.133-0.295-0.085
			c-0.357,0.157-0.662,0.381-0.852,0.734c-0.019,0.003-0.032,0.014-0.04,0.031c-0.164,0.067-0.251,0.201-0.308,0.36
			c-0.079,0.041-0.148,0.093-0.215-0.034c-0.059-0.114-0.138-0.226-0.23-0.314c-0.212-0.203-0.46-0.175-0.63,0.056
			c-0.017,0.025-0.031,0.051-0.048,0.075c-0.021,0.001-0.035,0.011-0.041,0.031c-0.042,0.002-0.052,0.023-0.038,0.06
			c-0.013,0.012-0.017,0.027-0.012,0.044c-0.115,0.088-0.121,0.23-0.167,0.35c-0.325,0.866-0.873,1.519-1.721,1.925
			c-0.158,0.077-0.4,0.035-0.479,0.263c-0.046,0.019-0.092,0.037-0.139,0.055c-0.234-0.005-0.436,0.201-0.683,0.103
			c0.016-0.011,0.021-0.024,0.016-0.043c0.019-0.028,0.038-0.056,0.058-0.084c0.042-0.019,0.071-0.049,0.072-0.099
			c0.018-0.023,0.033-0.047,0.05-0.072c0.031-0.046,0.063-0.092,0.094-0.137c0.038-0.018,0.05-0.047,0.041-0.087
			c0.013-0.005,0.016-0.015,0.009-0.027c0.076-0.058,0.131-0.13,0.135-0.231l-0.02-0.008l0.021,0.005l0,0l0,0l0,0l0,0
			c0.104-0.077,0.148-0.188,0.171-0.31c0.018-0.008,0.027-0.021,0.029-0.042c0.053-0.019,0.063-0.058,0.05-0.107
			c0.256-0.432,0.649-0.713,1.059-0.981c0.329-0.216,0.661-0.436,0.84-0.81c0.013-0.023,0.025-0.045,0.038-0.068
			c0.2-0.375,0.129-0.572-0.264-0.667c-0.206-0.05-0.323-0.071-0.183-0.337c0.107-0.206,0.276-0.436,0.157-0.707
			c0-0.124-0.029-0.24-0.085-0.351c0.015-0.08-0.032-0.106-0.099-0.114c0,0,0,0,0,0c-0.024-0.02-0.049-0.04-0.074-0.061
			c-0.021-0.037-0.045-0.069-0.094-0.063c-0.157-0.059-0.192-0.154-0.17-0.33c0.044-0.354,0.065-0.719-0.262-0.979v-0.001
			c-0.098-0.119-0.218-0.125-0.351-0.071c-0.058,0.015-0.115,0.03-0.174,0.044c-0.161,0.023-0.227-0.096-0.302-0.201
			c-0.105-0.147-0.217-0.287-0.4-0.34l0,0c-0.325-0.202-0.548-0.151-0.745,0.172c-0.017,0.004-0.023,0.014-0.023,0.03
			c-0.115,0.118-0.184,0.255-0.186,0.423c-0.002,0.039-0.004,0.078-0.007,0.116c0.17,0.231-0.012,0.259-0.173,0.297
			c0.002,0.01,0.009,0.024,0.004,0.029c-0.12,0.151,0.211,0.287,0.016,0.441c-0.126-0.19-0.439-0.199-0.465-0.485
			c-0.039,0.01-0.079,0.019-0.119,0.029c-0.014,0.12,0.193,0.309-0.106,0.339c-0.029,0.01-0.06,0.021-0.09,0.032
			c0.006,0.038,0.012,0.077,0.018,0.115c0.099,0.101,0.132,0.217,0.086,0.353c0.024,0.078,0.048,0.155,0.071,0.232
			c0.023,0.076,0.032,0.164,0.073,0.228c0.131,0.198,0.061,0.305-0.146,0.362c-0.019,0.006-0.039,0.012-0.059,0.018
			c-0.158-0.003-0.188,0.112-0.213,0.232c-0.036,0.112,0.008,0.21,0.056,0.308c0.093,0.252,0.283,0.438,0.45,0.636
			c0.098,0.114,0.118,0.178-0.025,0.283c-0.336,0.246-0.319,0.49,0.025,0.735l0.013-0.021l0,0l-0.013,0.021
			c0.118,0.138,0.257,0.239,0.444,0.256c0.007,0.016,0.02,0.023,0.037,0.02c0.03,0.016,0.061,0.032,0.091,0.047
			c0.038,0.06,0.098,0.068,0.161,0.061c0.253,0.304,0.246,0.64,0.12,0.989c-0.015,0.011-0.019,0.027-0.015,0.043
			c-0.275,0.333-0.6,0.604-0.993,0.791c-0.474,0.224-0.99,0.308-1.486,0.458c-0.037-0.028-0.075-0.058-0.112-0.086
			c-0.018-0.057-0.035-0.115-0.054-0.173c-0.021,0.006-0.042,0.014-0.063,0.021c0.014,0.057,0.03,0.115,0.045,0.173
			c0.021,0.072,0.066,0.105,0.141,0.102l0,0c0.014,0.015,0.027,0.029,0.041,0.044c0.154,0.013,0.305-0.002,0.45-0.051
			c-0.146,0.049-0.296,0.064-0.45,0.051c0.037,0.244,0.092,0.484,0.183,0.715c0.072-0.018,0.145-0.036,0.216-0.054
			c-0.071,0.019-0.144,0.036-0.216,0.054c0.027,0.16,0.055,0.32,0.082,0.479c0.026,0.093,0.055,0.187,0.081,0.28
			c0.014,0.002,0.022,0.009,0.027,0.021c0.116-0.033,0.233-0.067,0.351-0.099c0.652-0.168,1.307-0.292,1.979-0.116
			c0.08-0.012,0.152,0.003,0.21,0.063c0-0.001,0.007,0.002,0.007,0.002c0.084-0.012,0.148,0.021,0.196,0.09
			c0.059,0.043,0.117,0.086,0.176,0.129c0.087,0.026,0.123,0.092,0.143,0.174c0.035,0.054,0.07,0.108,0.104,0.163
			c0.09,0.098,0.122,0.206,0.064,0.332c-0.017,0.042-0.033,0.083-0.05,0.123c-0.015,0.099-0.067,0.171-0.158,0.213
			c-0.035,0.062-0.105,0.105-0.103,0.189l-0.001,0.003c-0.023,0.002-0.033,0.014-0.03,0.038c-0.063,0.055-0.104,0.123-0.116,0.207
			c0.02,0.004,0.055,0.005,0.055,0.01c0.007,0.066-0.051,0.039-0.082,0.053c-0.021,0.02-0.041,0.037-0.063,0.055
			c0.003,0.072,0.005,0.145,0.008,0.217c0.148-0.016,0.282-0.004,0.313,0.182c0.022,0.135,0.173,0.119,0.235,0.205
			c0.014,0.034,0.027,0.068,0.041,0.102c-0.028,0.053-0.016,0.13-0.093,0.152l-0.004,0.004c0.028,0.205-0.032,0.402-0.063,0.6
			c-0.031,0.189-0.021,0.363,0.083,0.525c0.026,0.014,0.051,0.027,0.077,0.041c0.103-0.014,0.211,0.041,0.311-0.021
			c0.089,0.004,0.18-0.064,0.267,0.006c-0.018,0.17,0.062,0.34-0.005,0.508c0.007,0.041,0.015,0.082,0.021,0.123
			c0.091,0.322,0.172,0.648,0.413,0.9l0.001,0.002c0.247,0.047,0.443-0.059,0.623-0.213c0.068-0.059,0.144-0.184,0.216,0
			c0.07,0.086,0.132,0.182,0.212,0.258c0.202,0.193,0.424,0.354,0.729,0.268C80.106,50.877,80.201,50.621,80.266,50.348z
			 M81.581,40.061c0.079-0.021,0.158-0.042,0.236-0.063C81.739,40.019,81.66,40.039,81.581,40.061
			c0.01,0.06-0.005,0.102-0.048,0.125C81.576,40.162,81.591,40.12,81.581,40.061z M75.645,37.624
			c-0.008-0.011,0.004-0.035,0.007-0.053c0.019,0.003,0.037,0.006,0.054,0.008c-0.002,0.02-0.005,0.037-0.008,0.056
			C75.679,37.632,75.652,37.634,75.645,37.624z M78.408,38.442c0.029,0.119,0.058,0.24,0.088,0.36
			C78.466,38.682,78.438,38.561,78.408,38.442c-0.002-0.01-0.004-0.017-0.006-0.026C78.404,38.425,78.405,38.433,78.408,38.442z
			 M74.985,38.413c0.06-0.013,0.112-0.078,0.171-0.093C75.098,38.335,75.045,38.4,74.985,38.413L74.985,38.413z M75.898,41.59
			c0.021-0.006,0.042-0.012,0.063-0.018C75.94,41.578,75.919,41.584,75.898,41.59L75.898,41.59z M74.884,43.602
			c-0.094,0.016-0.186,0.037-0.275,0.062C74.698,43.639,74.79,43.617,74.884,43.602c0.012,0.091,0.053,0.143,0.112,0.177
			C74.937,43.745,74.896,43.693,74.884,43.602z M73.809,44.672c0.052,0.017,0.093-0.008,0.124-0.073
			c0.04-0.01,0.079-0.02,0.118-0.03c-0.039,0.01-0.078,0.02-0.118,0.031C73.901,44.665,73.86,44.689,73.809,44.672z"/>
	</g>
	<path fill-rule="evenodd" clip-rule="evenodd" fill="#F89A1C" d="M71.148,49.225c0.18-0.064,0.358-0.131,0.538-0.193
		c0.19-0.07,0.38-0.137,0.57-0.205c0.094-0.059,0.187-0.117,0.279-0.176c0.348-0.218,0.68-0.453,0.887-0.822
		c0.251-0.304,0.329-0.666,0.369-1.045c0.048-0.439-0.047-0.871-0.063-1.307c-0.005-0.012-0.014-0.019-0.027-0.021
		c-0.026-0.093-0.055-0.187-0.081-0.28c-0.027-0.16-0.055-0.319-0.082-0.479c-0.091-0.231-0.146-0.471-0.183-0.715
		c-0.014-0.015-0.027-0.029-0.041-0.044c-0.074,0.003-0.12-0.03-0.141-0.102c-0.015-0.059-0.031-0.116-0.045-0.173
		c0.021-0.006,0.041-0.014,0.063-0.021c0.029-0.178-0.093-0.308-0.156-0.453c-0.355-0.806-0.924-1.361-1.829-1.491
		c-0.443-0.063-0.891-0.093-1.337-0.014c-0.018,0.018-0.035,0.035-0.052,0.052c0.019,0.146,0.054,0.264,0.125,0.333
		c-0.071-0.069-0.106-0.188-0.125-0.333c-0.149-0.022-0.286,0.026-0.422,0.075c-0.009-0.021-0.017-0.042-0.025-0.063
		c-0.439,0.15-0.91,0.19-1.342,0.369c0.005,0.019,0.009,0.037,0.011,0.057c-0.181-0.02-0.312,0.14-0.487,0.139
		c-0.686,0.29-1.371,0.579-2.058,0.867c-0.063-0.004-0.117,0.018-0.16,0.066c-0.088,0.017-0.174,0.039-0.237,0.108
		c-0.969,0.352-1.902,0.789-2.843,1.21c-0.079,0.01-0.151,0.031-0.194,0.107c-0.029,0.011-0.057,0.021-0.085,0.032
		c-0.007,0-0.018-0.002-0.023,0c-0.013,0.007-0.023,0.016-0.035,0.024c-0.036,0.013-0.073,0.025-0.11,0.038
		c-0.415,0.135-0.811,0.306-1.161,0.568c-0.049,0.016-0.095,0.032-0.142,0.047c-0.566,0.216-1.103,0.495-1.623,0.806
		c-0.095,0.004-0.17,0.048-0.228,0.121c-0.106,0.02-0.213,0.038-0.276,0.138c-0.04,0.019-0.078,0.036-0.117,0.055
		c-0.479,0.22-0.951,0.448-1.39,0.745c-0.095,0.01-0.175,0.043-0.225,0.127c-0.274,0.117-0.551,0.227-0.775,0.434
		c-0.038,0.02-0.076,0.036-0.113,0.055c-0.118,0.012-0.203,0.075-0.276,0.163c-0.07,0.015-0.121,0.055-0.161,0.112
		c-0.226,0.105-0.437,0.229-0.579,0.438c-0.036,0.037-0.07,0.076-0.104,0.113c-0.142,0.086-0.262,0.189-0.291,0.365v0.004
		c-0.142,0.225-0.124,0.432,0.078,0.613c0,0,0,0,0.001-0.002c0.134,0.227,0.36,0.291,0.598,0.33
		c-0.037-0.053-0.08-0.092-0.127-0.123c0.047,0.031,0.09,0.07,0.127,0.123c0.07,0.039,0.141,0.07,0.226,0.049
		c0.729,0.205,1.479,0.146,2.223,0.152c0.041-0.002,0.082-0.006,0.123-0.008c0.528,0.043,1.053,0.068,1.581,0.008
		c0.06-0.006,0.12-0.012,0.182-0.016c0.082,0.055,0.166,0.041,0.253,0.008c0.085,0.045,0.171,0.041,0.258,0.006
		c0.815,0.029,1.63,0.012,2.443-0.066c0.042-0.002,0.084-0.006,0.127-0.008c0.188,0.041,0.373,0.004,0.56-0.023
		c0.061-0.008,0.121-0.014,0.182-0.021c0.126,0.047,0.25,0.01,0.372-0.02c0.014,0.01,0.028,0.012,0.042,0
		c0.59-0.004,1.179-0.023,1.762-0.115c0.062-0.006,0.124-0.012,0.187-0.016c0.454-0.004,0.906-0.031,1.353-0.129v0.002
		c0.039,0.039,0.079,0.035,0.119,0.002c0.044-0.006,0.088-0.008,0.132-0.012c0.679-0.057,1.359-0.084,2.03-0.217
		c0.168,0.023,0.324-0.029,0.479-0.08c0.004,0.021,0.015,0.037,0.033,0.047C70.188,49.496,70.678,49.406,71.148,49.225z
		 M69.442,45.954c0.208-0.051,0.416-0.105,0.625-0.153C69.858,45.849,69.65,45.902,69.442,45.954
		c-0.228,0.056-0.454,0.12-0.684,0.166C68.988,46.074,69.215,46.01,69.442,45.954z M54.465,49.688
		c0.143,0.064,0.301,0.102,0.429,0.189C54.766,49.789,54.607,49.752,54.465,49.688z M73.64,46.134
		c-0.006-0.004-0.008-0.014-0.011-0.021c0.01-0.002,0.022-0.002,0.032-0.004c-0.001,0.007-0.002,0.016-0.002,0.023
		C73.652,46.133,73.644,46.137,73.64,46.134z"/>
</g>
<path opacity="0.24" fill="#68E1FD" enable-background="new    " d="M92.718,59.584c0.203,9.375-7.513,16.783-14.645,22.897
	c-0.023,0.025-0.049,0.048-0.076,0.069l-9.646,8.145c-1.211,1.054-2.555,1.944-3.997,2.649c-6.341,3.128-14.31,2.843-21.604,2.354
	c-5.872-0.407-12.547-1.237-15.938-6.058c-1.101-1.576-1.734-3.454-2.929-4.962c-1.712-2.175-4.372-3.333-6.781-4.688
	c-3.248-1.846-6.115-4.295-8.446-7.215c-4.472-5.6-6.746-12.723-4.506-19.361c0.035-0.111,0.078-0.227,0.12-0.34
	c1.366-3.752,4.015-6.891,5.88-10.423c6.006-11.318,4.25-26.729,13.706-35.396C28.44,3.057,34.803,1.427,40.96,0.611
	c6.426-0.852,13.043-0.96,19.321,0.626c12.874,3.226,23.458,14.03,26.741,26.848c0.328,1.247,0.58,2.512,0.755,3.789
	c0.597,4.343,0.426,8.794,1.329,13.087c0.248,1.159,0.568,2.297,0.925,3.434C91.183,52.092,92.64,55.731,92.718,59.584z"/>
<linearGradient id="SVGID_2_" gradientUnits="userSpaceOnUse" x1="1537.0215" y1="-1799.6738" x2="1544.933" y2="-2157.0029" gradientTransform="matrix(0.2038 0 0 -0.2038 -254.3206 -327.8322)">
	<stop  offset="0" style="stop-color:#010101;stop-opacity:0"/>
	<stop  offset="0.95" style="stop-color:#010101"/>
</linearGradient>
<polygon fill="url(#SVGID_2_)" points="90.302,49.008 27.337,49.008 27.337,51.709 91.103,51.709 "/>
<linearGradient id="SVGID_3_" gradientUnits="userSpaceOnUse" x1="1528.1211" y1="-1782.8379" x2="1560.918" y2="-1782.8379" gradientTransform="matrix(0.2038 0 0 -0.2038 -254.3206 -327.8322)">
	<stop  offset="0" style="stop-color:#FFFFFF;stop-opacity:0"/>
	<stop  offset="0.14" style="stop-color:#FFFFFF;stop-opacity:0.22"/>
	<stop  offset="0.3" style="stop-color:#FFFFFF;stop-opacity:0.45"/>
	<stop  offset="0.45" style="stop-color:#FFFFFF;stop-opacity:0.65"/>
	<stop  offset="0.6" style="stop-color:#FFFFFF;stop-opacity:0.8"/>
	<stop  offset="0.73" style="stop-color:#FFFFFF;stop-opacity:0.91"/>
	<stop  offset="0.85" style="stop-color:#FFFFFF;stop-opacity:0.98"/>
	<stop  offset="0.94" style="stop-color:#FFFFFF"/>
</linearGradient>
<rect x="56.078" y="34.829" fill="url(#SVGID_3_)" width="6.685" height="1.394"/>
<linearGradient id="SVGID_4_" gradientUnits="userSpaceOnUse" x1="1528.1211" y1="-1820.0547" x2="1560.918" y2="-1820.0547" gradientTransform="matrix(0.2038 0 0 -0.2038 -254.3206 -327.8322)">
	<stop  offset="0" style="stop-color:#FFFFFF;stop-opacity:0"/>
	<stop  offset="0.14" style="stop-color:#FFFFFF;stop-opacity:0.22"/>
	<stop  offset="0.3" style="stop-color:#FFFFFF;stop-opacity:0.45"/>
	<stop  offset="0.45" style="stop-color:#FFFFFF;stop-opacity:0.65"/>
	<stop  offset="0.6" style="stop-color:#FFFFFF;stop-opacity:0.8"/>
	<stop  offset="0.73" style="stop-color:#FFFFFF;stop-opacity:0.91"/>
	<stop  offset="0.85" style="stop-color:#FFFFFF;stop-opacity:0.98"/>
	<stop  offset="0.94" style="stop-color:#FFFFFF"/>
</linearGradient>
<rect x="56.078" y="40.687" fill="url(#SVGID_4_)" width="6.685" height="4.849"/>
<path fill="#FEBA7B" d="M34.309,41.171c0.654-1.402,1.07-2.913,1.802-4.28c1.447-2.699,4.076-4.714,5.077-7.608
	c1.205,0.483,1.608,2.018,1.476,3.31c-0.132,1.292-0.634,2.545-0.572,3.842c3.414-2.813,7.727-4.303,12.149-4.197
	c1.063,0.031,2.215,0.204,2.963,0.954c0.521,0.528,0.762,1.266,0.984,1.973c0.57,1.808,1.147,3.711,0.772,5.568
	c-0.116,0.575-0.322,1.145-0.271,1.728c0.072,0.797,0.611,1.614,0.276,2.34c-0.126,0.269-0.362,0.479-0.46,0.76
	c-0.18,0.52,0.171,1.062,0.244,1.606c0.15,1.094-0.815,2.014-1.775,2.555c-2.854,1.606-6.24,1.906-9.33,2.992
	c-9.946,3.494-13.716,1.412-13.831,1.057c-0.781-2.401-2.387-5.42-2.56-7.929C31.136,44.133,33.573,42.749,34.309,41.171z"/>
<linearGradient id="SVGID_5_" gradientUnits="userSpaceOnUse" x1="1486.2891" y1="-1852.6191" x2="1585.879" y2="-1798.8391" gradientTransform="matrix(0.2038 0 0 -0.2038 -266.6429 -329.4611)">
	<stop  offset="0" style="stop-color:#010101;stop-opacity:0"/>
	<stop  offset="0.95" style="stop-color:#010101"/>
</linearGradient>
<path fill="url(#SVGID_5_)" d="M39.476,48.753c-0.489,0.799,0.65,1.747,1.142,2.544c0.247,0.407,0.516,0.814,0.939,1.031
	c0.375,0.186,0.815,0.171,1.233,0.154c0.84-0.036,1.708-0.079,2.456-0.465c1.156-0.593,1.779-1.86,2.262-3.066
	c1.427-3.555,2.291-7.542,1.121-11.196c-0.336-1.051-0.923-2.132-1.951-2.537c-0.997-0.392-2.118-0.039-3.102,0.381
	c-0.57,0.245-1.661,0.536-1.979,1.107C41.314,37.211,42.816,43.301,39.476,48.753z"/>
<path fill="#68E1FD" d="M34.644,57.211c-0.143,0.23-0.351,0.414-0.597,0.525c-4.421,2.632-17.024,8.438-20.948,11.758
	c-1.402,1.195-2.808,2.446-4.437,3.277c-0.408-0.51-0.798-1.036-1.172-1.577c-0.56-0.812-0.014-0.022-0.022-0.028
	c-3.669-5.317-5.346-11.737-3.312-17.752c1.329-0.126,3.986-2.038,5.012-2.515c3.766-1.734,16.05-6,20.032-7.181
	c0.34-0.105,0.731-0.204,1.058-0.049c0.251,0.161,0.451,0.39,0.577,0.661c1.678,2.944,2.855,6.147,3.483,9.477
	c0.171,0.874,0.297,1.763,0.391,2.649C34.758,56.709,34.735,56.971,34.644,57.211z"/>
<path fill="#68E1FD" d="M43.8,25.719h11.475c1.188,0,2.152,0.963,2.152,2.152v24.236c0,1.189-0.965,2.152-2.152,2.152H43.8
	c-1.188,0-2.152-0.963-2.152-2.152V27.871C41.648,26.682,42.612,25.719,43.8,25.719z"/>
<rect x="42.443" y="27.522" fill="#FFFFFF" width="14.186" height="23.792"/>
<circle opacity="0.16" fill="#68E1FD" enable-background="new    " cx="49.246" cy="34.02" r="4.629"/>
<path fill="#68E1FD" d="M44.889,44.801h8.461c0.409,0,0.741,0.332,0.741,0.742v1.688c0,0.41-0.332,0.742-0.741,0.742h-8.461
	c-0.41,0-0.742-0.333-0.742-0.742v-1.688C44.147,45.133,44.479,44.801,44.889,44.801z"/>
<linearGradient id="SVGID_6_" gradientUnits="userSpaceOnUse" x1="1544.8047" y1="-1826.5464" x2="1688.7031" y2="-1857.9725" gradientTransform="matrix(0.2038 0 0 -0.2038 -266.6429 -329.4611)">
	<stop  offset="0" style="stop-color:#010101;stop-opacity:0"/>
	<stop  offset="0.95" style="stop-color:#010101"/>
</linearGradient>
<path fill="url(#SVGID_6_)" d="M53.971,41.546c0.158,0.247,0.422,0.428,0.512,0.707c0.16,0.508-0.326,0.979-0.449,1.498
	c-0.189,0.815,0.53,1.583,0.457,2.407c-0.053,0.625-0.557,1.205-0.408,1.812c-0.611-0.893-2.149-0.512-2.691,0.428
	c-0.543,0.939-0.388,2.107-0.204,3.176c0.204,1.116,0.569,2.406,1.63,2.8c0.802,0.294,1.68-0.055,2.461-0.397
	c-0.383-1.398-0.73-2.805-1.044-4.221c0.945-0.013,1.878,0.215,2.711,0.662c0.338-1.062,0.343-2.197,0.345-3.31l0.01-7.637V35.53
	c0-0.787,0.486-0.844-0.092-1.335c-0.75,1.237-3.047,0.585-3.163,2.053c-0.079,0.988,0.611,1.712,0.364,2.745
	C54.24,39.798,53.437,40.709,53.971,41.546z"/>
<path fill="#FEBA7B" d="M71.033,75.445c-0.096,0.123-0.217,0.223-0.354,0.292c-1.237,0.724-2.56,1.478-3.997,1.472
	c-2.109-0.015-2.414,1.763-3.852,0.22c-1.897-2.038-5.651-6.242-7.406-8.411c-1.494-1.834-2.012-3.681-2.168-6.055
	c-0.058-0.775-0.106-1.586,0.185-2.312c0.155-0.407,0.952-2.068,1.138-2.474c0.042-0.096,0.08-0.193,0.111-0.292
	c0.32-0.946,0.18-1.969-0.168-2.949l0,0c-0.219-0.597-0.491-1.173-0.816-1.72c-0.889-1.515-1.99-3.006-2.119-4.749
	c-0.028-0.446,0.014-0.932,0.3-1.286c0.426-0.54,1.271-0.568,1.884-0.249c0.611,0.32,1.037,0.889,1.436,1.451
	c1.102,1.583,2.133,3.211,3.078,4.891c0.518-0.691,1.478-0.945,2.317-0.76c0.839,0.186,1.558,0.737,2.089,1.414
	c0.349,0.455,0.654,0.973,1.16,1.235c0.407,0.214,0.88,0.228,1.314,0.362c1.577,0.471,2.274,2.254,3.014,3.727
	c0.549,1.094,1.223,2.131,1.631,3.291c0.377,1.094,0.482,2.268,0.531,3.426c0.129,2.895-0.07,5.844,0.697,8.638
	C71.111,74.883,71.19,75.207,71.033,75.445z"/>
<linearGradient id="SVGID_7_" gradientUnits="userSpaceOnUse" x1="1609.9033" y1="-1956.1279" x2="1692.6107" y2="-2053.0967" gradientTransform="matrix(0.2038 0 0 -0.2038 -266.6429 -329.4611)">
	<stop  offset="0" style="stop-color:#010101;stop-opacity:0"/>
	<stop  offset="0.95" style="stop-color:#010101"/>
</linearGradient>
<path fill="url(#SVGID_7_)" d="M59.104,73.251c0.791,0.786,2.509,2.839,3.302,3.626c0.356,0.356,0.736,0.725,1.223,0.863
	c0.408,0.115-0.092-1.208,0.322-1.277c2.002-0.334,5.25-0.883,7.113-1.688l-0.324-1.5c-0.633-0.336-3.309,0.186-4.076,0.225
	c-1.289,0.063-2.579,0.072-3.873,0.025C62.127,73.504,59.573,73.716,59.104,73.251z"/>
<path fill="#68E1FD" d="M78.07,82.483c-0.023,0.025-0.049,0.048-0.076,0.069L69.17,89.99l-0.814,0.696
	c-1.211,1.054-2.555,1.945-3.996,2.649c-2.195-5.615-3.561-16.229-3.561-16.229l1.174-0.35l10.66-3.134L78.07,82.483z"/>
<path fill="#FEBA7B" d="M43.35,34.083c0.389-1.09,0.354-2.295,0.092-3.422c-0.173-0.748-0.46-1.498-1.007-2.038
	c-0.128-0.153-0.311-0.25-0.51-0.271c-0.373,0-0.591,0.407-0.717,0.758c-0.53,1.469-1.011,2.955-1.443,4.458
	c-0.235,0.692-0.362,1.417-0.375,2.148c0.037,1.251,0.726,2.224,1.851,1.237C42.115,36.182,42.951,35.198,43.35,34.083z"/>
<path fill="#FEBA7B" d="M55.405,33.488c-0.656,0.236-1.223,0.852-1.196,1.551c0.022,0.57,0.432,1.072,0.926,1.359
	c0.511,0.259,1.063,0.432,1.63,0.511c-1.001,0.155-1.866,0.783-2.323,1.688c-0.32,0.642-0.371,1.498,0.129,2.016
	c0.182,0.178,0.398,0.316,0.635,0.408c0.406,0.17,0.839,0.269,1.278,0.292c-0.984-0.047-1.95,0.771-2.001,1.753
	s0.902,1.914,1.879,1.779c-0.742-0.121-1.498,0.446-1.684,1.174c-0.154,0.753,0.135,1.529,0.744,1.997
	c0.613,0.447,1.384,0.625,2.132,0.493c0.372-0.056,0.767-0.203,0.966-0.519s0.15-0.724,0.107-1.094
	c-0.48-4.152,1.17-8.308,0.135-12.4c-0.137-0.534-1.065-0.958-1.59-1.109C56.586,33.251,55.973,33.286,55.405,33.488z"/>
<linearGradient id="SVGID_8_" gradientUnits="userSpaceOnUse" x1="1394.3086" y1="-1886.0347" x2="1451.7529" y2="-2026.4608" gradientTransform="matrix(0.2038 0 0 -0.2038 -266.6429 -329.4611)">
	<stop  offset="0" style="stop-color:#010101;stop-opacity:0"/>
	<stop  offset="0.95" style="stop-color:#010101"/>
</linearGradient>
<path fill="url(#SVGID_8_)" d="M34.644,57.211c-0.143,0.23-0.351,0.414-0.597,0.525c-4.421,2.632-17.024,8.438-20.948,11.758
	c-1.402,1.195-2.808,2.446-4.437,3.277c-0.438-0.488-0.831-1.017-1.172-1.577c0,0-0.014-0.022-0.022-0.028
	c-0.833-1.375-1.595-2.791-2.283-4.243c4.508,0.497,28.627-13.151,28.627-13.151c0.169-0.018,0.339-0.008,0.505,0.027
	c0.171,0.875,0.297,1.764,0.391,2.65C34.76,56.704,34.737,56.969,34.644,57.211z"/>
<linearGradient id="SVGID_9_" gradientUnits="userSpaceOnUse" x1="1649.3008" y1="-2013.8364" x2="1549.7908" y2="-2075.6965" gradientTransform="matrix(0.2038 0 0 -0.2038 -266.6429 -329.4611)">
	<stop  offset="0" style="stop-color:#010101;stop-opacity:0"/>
	<stop  offset="0.95" style="stop-color:#010101"/>
</linearGradient>
<path fill="url(#SVGID_9_)" d="M69.17,89.99l-0.814,0.696c-1.211,1.054-2.555,1.945-3.996,2.649
	c-2.195-5.615-3.561-16.229-3.561-16.229l1.174-0.35c0.494-0.107,0.994-0.188,1.498-0.24c0.882,1.955,1.756,3.909,2.459,5.943
	c0.42,1.223,0.783,2.458,1.252,3.668c0.469,1.211,1.145,2.163,1.799,3.262C69.088,89.574,69.152,89.778,69.17,89.99z"/>
<linearGradient id="SVGID_10_" gradientUnits="userSpaceOnUse" x1="1572.2568" y1="-1938.0381" x2="1608.2668" y2="-1816.2581" gradientTransform="matrix(0.2038 0 0 -0.2038 -266.6429 -329.4611)">
	<stop  offset="0" style="stop-color:#010101;stop-opacity:0"/>
	<stop  offset="0.95" style="stop-color:#010101"/>
</linearGradient>
<path fill="url(#SVGID_10_)" d="M57.035,62.522c0.02,0.177-0.028,0.354-0.134,0.497c-0.234,0.24-0.632,0.063-0.909-0.129
	c-0.648-0.434-1.337-0.939-1.494-1.699c-0.047-0.367-0.029-0.739,0.051-1.101c0.092-0.611,0.149-1.245,0.184-1.877
	c0-0.11-0.014-0.222-0.043-0.328c0.32-0.946,0.18-1.969-0.168-2.949c0.773,1.507,1.641,3.774,1.805,4.187
	C56.77,60.203,57.01,61.355,57.035,62.522z"/>
<linearGradient id="SVGID_11_" gradientUnits="userSpaceOnUse" x1="1536.3008" y1="-1780.1992" x2="1569.0977" y2="-1780.1992" gradientTransform="matrix(0.2038 0 0 -0.2038 -254.3206 -327.8322)">
	<stop  offset="0" style="stop-color:#FFFFFF;stop-opacity:0"/>
	<stop  offset="0.14" style="stop-color:#FFFFFF;stop-opacity:0.22"/>
	<stop  offset="0.3" style="stop-color:#FFFFFF;stop-opacity:0.45"/>
	<stop  offset="0.45" style="stop-color:#FFFFFF;stop-opacity:0.65"/>
	<stop  offset="0.6" style="stop-color:#FFFFFF;stop-opacity:0.8"/>
	<stop  offset="0.73" style="stop-color:#FFFFFF;stop-opacity:0.91"/>
	<stop  offset="0.85" style="stop-color:#FFFFFF;stop-opacity:0.98"/>
	<stop  offset="0.94" style="stop-color:#FFFFFF"/>
</linearGradient>
<rect x="57.747" y="31.097" opacity="0.48" fill="url(#SVGID_11_)" enable-background="new    " width="6.685" height="7.781"/>
<linearGradient id="SVGID_12_" gradientUnits="userSpaceOnUse" x1="1536.3008" y1="-1801.998" x2="1569.0977" y2="-1801.998" gradientTransform="matrix(0.2038 0 0 -0.2038 -254.3206 -327.8322)">
	<stop  offset="0" style="stop-color:#FFFFFF;stop-opacity:0"/>
	<stop  offset="0.14" style="stop-color:#FFFFFF;stop-opacity:0.22"/>
	<stop  offset="0.3" style="stop-color:#FFFFFF;stop-opacity:0.45"/>
	<stop  offset="0.45" style="stop-color:#FFFFFF;stop-opacity:0.65"/>
	<stop  offset="0.6" style="stop-color:#FFFFFF;stop-opacity:0.8"/>
	<stop  offset="0.73" style="stop-color:#FFFFFF;stop-opacity:0.91"/>
	<stop  offset="0.85" style="stop-color:#FFFFFF;stop-opacity:0.98"/>
	<stop  offset="0.94" style="stop-color:#FFFFFF"/>
</linearGradient>
<rect x="57.747" y="36.798" opacity="0.48" fill="url(#SVGID_12_)" enable-background="new    " width="6.685" height="5.266"/>
<g>
	<g>
		<rect x="49.477" y="33.484" fill-rule="evenodd" clip-rule="evenodd" fill="#4EB448" width="0.006" height="0.003"/>
		<path fill-rule="evenodd" clip-rule="evenodd" fill="#4EB448" d="M50.692,32.331c-0.014-0.008-0.031-0.014-0.047-0.019
			c-0.023-0.008-0.035-0.023-0.035-0.047c0.005-0.013,0.005-0.026,0-0.039c0-0.072-0.052-0.09-0.107-0.096
			c-0.053-0.005-0.104,0.007-0.151,0.03c-0.021,0.011-0.035,0.018-0.055-0.008c-0.056-0.076-0.112-0.086-0.196-0.049
			c-0.039,0.018-0.072,0.043-0.103,0.07c-0.028,0.024-0.042,0.025-0.062-0.013c-0.049-0.1-0.105-0.106-0.181-0.021
			c-0.065,0.073-0.103,0.162-0.13,0.253c-0.03,0.098-0.081,0.182-0.162,0.246c-0.058,0.044-0.11,0.097-0.162,0.151
			c-0.01,0.012-0.016,0.033-0.04,0.025c-0.002-0.006-0.005-0.013-0.005-0.018c-0.002-0.312,0.104-0.569,0.379-0.738
			c0.048-0.029,0.094-0.062,0.088-0.126c-0.005-0.064-0.058-0.083-0.106-0.098c-0.044-0.013-0.037-0.03-0.017-0.059
			c0.053-0.069,0.103-0.14,0.136-0.222c0.046-0.11,0.016-0.154-0.102-0.156c-0.017,0-0.03-0.002-0.046-0.002
			c-0.004-0.004-0.007-0.007-0.011-0.011c-0.007-0.016,0.004-0.029,0.007-0.043c0.033-0.097,0.065-0.193,0.06-0.298
			c-0.003-0.068-0.033-0.096-0.102-0.099c-0.037-0.001-0.068,0.009-0.101,0.025c-0.044,0.024-0.071,0.016-0.08-0.038
			c-0.011-0.057-0.039-0.106-0.076-0.149c-0.073-0.083-0.161-0.075-0.225,0.02c0.002,0.008,0.002,0.017,0.002,0.025
			c0.012,0,0.021,0.005,0.029,0.013c-0.009-0.007-0.018-0.013-0.029-0.013c0-0.009,0-0.018-0.002-0.025
			c-0.032,0.013-0.035,0.047-0.05,0.072c-0.018,0.032-0.009,0.081-0.04,0.099c-0.033,0.02-0.066-0.019-0.102-0.028
			c-0.085-0.02-0.148,0.005-0.155,0.069c-0.011,0.104,0.004,0.207,0.057,0.299l0.002-0.002c0,0.009,0.001,0.017,0.001,0.025
			c0.011,0.047-0.01,0.063-0.056,0.057c-0.028-0.004-0.06-0.004-0.081,0.023l-0.005,0.004c-0.026,0.01-0.037,0.032-0.032,0.056
			c0.015,0.082,0.044,0.157,0.107,0.214c0,0.004,0.002,0.008,0.005,0.01c0.006,0.037,0.028,0.062,0.059,0.082
			c0.005,0.019,0.012,0.035-0.018,0.042c-0.026,0.007-0.053,0.018-0.077,0.032c-0.053,0.034-0.059,0.087-0.02,0.134
			c0.003,0.004,0.009,0.009,0.012,0.014c0,0.004,0.002,0.008,0.006,0.01c-0.002,0.009,0.002,0.012,0.011,0.012
			c0.001,0.002,0.003,0.004,0.007,0.004c0.012,0.028,0.042,0.037,0.064,0.052c0.162,0.111,0.27,0.259,0.31,0.455
			c0.009,0.036-0.012,0.084,0.03,0.112c0.002,0.01,0.003,0.021,0.005,0.032c-0.014,0.048,0.02,0.1-0.014,0.146
			c-0.002-0.003-0.004-0.005-0.009-0.005c-0.004-0.005-0.009-0.01-0.015-0.017c-0.001-0.01-0.007-0.017-0.016-0.02
			c-0.005-0.004-0.009-0.009-0.012-0.013c-0.009-0.009-0.017-0.018-0.025-0.026c-0.001-0.009-0.007-0.013-0.016-0.013
			c0-0.003-0.002-0.004-0.005-0.003c-0.009-0.019-0.02-0.034-0.041-0.04l-0.003,0.003l0.003-0.003l0,0l0,0l0,0l0,0
			c-0.012-0.026-0.031-0.041-0.056-0.051c0-0.004-0.004-0.007-0.007-0.009c-0.002-0.011-0.009-0.016-0.02-0.016
			c-0.077-0.075-0.114-0.17-0.149-0.269c-0.028-0.079-0.057-0.159-0.125-0.215c-0.004-0.003-0.007-0.008-0.013-0.011
			c-0.066-0.061-0.11-0.056-0.151,0.02c-0.021,0.041-0.031,0.063-0.079,0.021c-0.037-0.032-0.075-0.08-0.139-0.068
			c-0.024-0.006-0.051-0.006-0.076-0.001c-0.016-0.007-0.024,0.002-0.03,0.015l0,0c-0.005,0.004-0.011,0.008-0.016,0.012
			c-0.009,0.001-0.016,0.005-0.018,0.016c-0.021,0.03-0.042,0.033-0.078,0.019c-0.07-0.027-0.146-0.05-0.216,0.004l0,0
			c-0.03,0.014-0.037,0.039-0.033,0.068c0,0.013,0.002,0.026,0.002,0.039c-0.004,0.034-0.032,0.041-0.058,0.052
			c-0.035,0.014-0.07,0.03-0.09,0.065l0,0c-0.06,0.057-0.06,0.106-0.003,0.164c0,0.003,0.002,0.005,0.005,0.006
			c0.018,0.03,0.044,0.051,0.077,0.06c0.009,0.002,0.016,0.005,0.025,0.008c0.056-0.024,0.053,0.016,0.053,0.051
			c0.001,0,0.005,0,0.005,0c0.026,0.034,0.07-0.028,0.093,0.021c-0.045,0.016-0.065,0.08-0.125,0.071c0,0.009,0,0.018,0,0.025
			c0.024,0.01,0.074-0.024,0.065,0.04c0,0.007,0.001,0.014,0.001,0.02c0.009,0.001,0.016,0.002,0.025,0.003
			c0.026-0.016,0.051-0.017,0.077,0c0.018-0.001,0.035-0.002,0.053-0.003c0.016-0.001,0.035,0.002,0.049-0.003
			c0.049-0.017,0.067,0.002,0.068,0.048c0,0.004,0,0.009,0,0.013c-0.009,0.033,0.014,0.045,0.037,0.056
			c0.023,0.013,0.044,0.009,0.067,0.003c0.058-0.006,0.105-0.036,0.155-0.061c0.028-0.014,0.042-0.015,0.058,0.021
			c0.034,0.082,0.084,0.09,0.153,0.031l-0.003-0.003l0,0l0.003,0.003c0.035-0.017,0.063-0.04,0.076-0.078
			c0.003-0.001,0.005-0.002,0.005-0.007c0.005-0.005,0.011-0.011,0.016-0.017c0.015-0.004,0.02-0.016,0.021-0.03
			c0.075-0.037,0.144-0.018,0.209,0.026c0.002,0.004,0.005,0.004,0.009,0.004c0.055,0.075,0.095,0.156,0.112,0.246
			c0.023,0.11,0.015,0.221,0.02,0.332c-0.009,0.006-0.016,0.012-0.024,0.019c-0.013,0.001-0.024,0.001-0.037,0.002
			c0,0.004,0,0.009,0,0.014c0.013-0.001,0.024-0.001,0.039-0.001c0.016,0,0.024-0.008,0.027-0.023l0,0
			c0.004-0.003,0.008-0.004,0.011-0.006c0.011-0.032,0.016-0.063,0.013-0.096c0.003,0.032-0.002,0.064-0.013,0.096
			c0.053,0.004,0.105,0.005,0.158-0.002c0-0.016,0-0.031,0-0.047c0,0.016,0,0.032,0,0.047c0.033,0.003,0.068,0.005,0.104,0.008
			c0.02-0.001,0.041-0.002,0.062-0.003c0-0.002,0.004-0.004,0.006-0.004c0-0.026-0.002-0.052-0.002-0.078
			c-0.002-0.143,0.005-0.285,0.075-0.415c0.002-0.018,0.009-0.031,0.025-0.04l0.001-0.001c0.002-0.019,0.011-0.03,0.028-0.036
			c0.013-0.01,0.023-0.02,0.035-0.03c0.011-0.017,0.026-0.021,0.044-0.021c0.013-0.004,0.024-0.009,0.039-0.013
			c0.024-0.013,0.049-0.014,0.072,0.003c0.007,0.006,0.016,0.011,0.022,0.017c0.02,0.009,0.031,0.023,0.035,0.044
			c0.013,0.011,0.018,0.027,0.035,0.031l0,0c-0.002,0.005,0.002,0.008,0.005,0.009c0.009,0.016,0.021,0.028,0.039,0.034
			c0.002-0.003,0.004-0.01,0.004-0.01c0.014,0.001,0.005,0.012,0.007,0.019c0.003,0.005,0.005,0.011,0.009,0.016
			c0.014,0.003,0.029,0.006,0.044,0.009c0.005-0.031,0.014-0.059,0.055-0.055c0.029,0.002,0.033-0.03,0.054-0.039
			c0.008-0.001,0.017-0.002,0.023-0.003c0.009,0.008,0.026,0.01,0.026,0.026l0.002,0.001c0.044,0.004,0.08,0.027,0.121,0.044
			c0.037,0.016,0.073,0.023,0.112,0.01c0.004-0.004,0.007-0.009,0.013-0.014c0.001-0.022,0.019-0.041,0.01-0.065
			c0.006-0.019-0.003-0.041,0.017-0.055c0.033,0.013,0.071,0.005,0.104,0.027c0.009,0.001,0.018,0.002,0.026,0.002
			c0.072-0.002,0.144-0.002,0.209-0.04l0,0c0.021-0.048,0.011-0.094-0.013-0.14c-0.009-0.017-0.031-0.039,0.011-0.045
			c0.021-0.01,0.044-0.018,0.065-0.03c0.049-0.033,0.095-0.07,0.091-0.138C50.795,32.391,50.747,32.358,50.692,32.331z
			 M48.633,31.533c-0.002-0.017-0.002-0.034-0.002-0.052C48.631,31.499,48.631,31.516,48.633,31.533
			c0.012,0.002,0.021,0.006,0.022,0.017C48.653,31.539,48.645,31.535,48.633,31.533z M47.824,32.637
			c-0.001,0.001-0.007-0.002-0.01-0.003c0.001-0.004,0.003-0.007,0.005-0.012c0.003,0.002,0.007,0.003,0.01,0.005
			C47.828,32.63,47.828,32.636,47.824,32.637z M48.135,32.106c0.026,0,0.053,0.001,0.079,0.001
			C48.188,32.107,48.162,32.106,48.135,32.106c-0.002,0-0.004,0-0.005,0C48.131,32.106,48.133,32.106,48.135,32.106z M47.954,32.814
			c0-0.013-0.011-0.028-0.011-0.04C47.943,32.786,47.954,32.801,47.954,32.814L47.954,32.814z M48.659,32.787
			c0-0.004-0.002-0.009-0.002-0.014C48.657,32.778,48.659,32.783,48.659,32.787L48.659,32.787z M49.022,33.1
			c-0.002,0.021-0.002,0.041-0.002,0.061C49.021,33.14,49.021,33.12,49.022,33.1c0.02,0.003,0.032-0.003,0.042-0.014
			C49.055,33.096,49.042,33.103,49.022,33.1z M49.189,33.376c0.006-0.009,0.002-0.019-0.009-0.029c0-0.009,0-0.018,0-0.026
			c0,0.009,0,0.018,0,0.026C49.191,33.357,49.195,33.367,49.189,33.376z"/>
	</g>
	<path fill-rule="evenodd" clip-rule="evenodd" fill="#F89A1C" d="M49.995,34.16c-0.004-0.041-0.009-0.081-0.013-0.121
		c-0.005-0.042-0.009-0.085-0.013-0.128c-0.009-0.022-0.016-0.044-0.022-0.067c-0.028-0.083-0.06-0.164-0.125-0.225
		c-0.049-0.067-0.121-0.103-0.196-0.13c-0.09-0.033-0.184-0.035-0.274-0.054c-0.002,0-0.006,0.002-0.006,0.004
		c-0.021,0.001-0.042,0.002-0.062,0.003c-0.035-0.003-0.07-0.005-0.104-0.008c-0.053,0.007-0.105,0.006-0.158,0.002
		c-0.003,0.002-0.007,0.003-0.011,0.006c-0.003,0.016-0.012,0.023-0.027,0.023c-0.015,0-0.026,0-0.039,0.001c0-0.005,0-0.01,0-0.014
		c-0.037-0.016-0.068,0.003-0.102,0.009c-0.185,0.033-0.329,0.122-0.403,0.302c-0.035,0.089-0.065,0.18-0.07,0.276
		c0.002,0.004,0.005,0.009,0.007,0.013c0.032,0.003,0.058,0.002,0.076-0.009c-0.018,0.011-0.044,0.012-0.076,0.009
		c-0.012,0.03-0.009,0.061-0.005,0.091c-0.005,0.001-0.011,0.001-0.014,0.001c0.009,0.1-0.007,0.198,0.007,0.297
		c0.003,0,0.009,0,0.012,0c-0.014,0.037,0.013,0.072,0.004,0.108c0.024,0.156,0.049,0.314,0.075,0.47
		c-0.005,0.013-0.003,0.025,0.005,0.037c-0.001,0.018-0.001,0.038,0.011,0.054c0.023,0.218,0.064,0.434,0.104,0.649
		c-0.002,0.018,0,0.034,0.013,0.046c0.001,0.007,0.001,0.013,0.003,0.02c-0.002,0.001-0.002,0.003-0.002,0.005
		c0,0.003,0.002,0.005,0.004,0.008c0,0.009,0.002,0.017,0.002,0.025c0.007,0.092,0.021,0.183,0.058,0.269
		c0.002,0.01,0.002,0.021,0.004,0.031c0.016,0.128,0.046,0.254,0.082,0.377c-0.003,0.02,0.002,0.038,0.015,0.053
		c-0.002,0.023-0.004,0.046,0.014,0.064c0.002,0.009,0.004,0.018,0.006,0.027c0.021,0.11,0.044,0.22,0.082,0.325
		c-0.002,0.02,0,0.039,0.016,0.053c0.011,0.063,0.02,0.125,0.05,0.183c0.002,0.009,0.005,0.018,0.007,0.026
		c-0.005,0.024,0.004,0.046,0.02,0.065c-0.002,0.016,0.005,0.028,0.014,0.04c0.011,0.052,0.026,0.102,0.062,0.143
		c0.006,0.009,0.013,0.019,0.018,0.027c0.011,0.033,0.026,0.063,0.062,0.078v0.001c0.041,0.04,0.083,0.047,0.132,0.015l0,0
		c0.053-0.017,0.077-0.06,0.099-0.107c-0.013,0.005-0.022,0.012-0.031,0.02c0.009-0.008,0.019-0.015,0.031-0.02
		c0.011-0.013,0.021-0.026,0.021-0.044c0.079-0.141,0.105-0.299,0.146-0.453c0-0.009,0.002-0.017,0.004-0.026
		c0.036-0.107,0.068-0.214,0.082-0.327c0.002-0.012,0.004-0.025,0.006-0.038c0.016-0.015,0.018-0.032,0.016-0.053
		c0.014-0.015,0.018-0.033,0.014-0.053c0.048-0.167,0.086-0.336,0.111-0.509c0.001-0.009,0.003-0.018,0.005-0.026
		c0.018-0.037,0.02-0.077,0.024-0.118c0-0.012,0.002-0.025,0.004-0.039c0.016-0.024,0.016-0.051,0.016-0.078
		c0.002-0.002,0.004-0.005,0.002-0.009c0.029-0.122,0.055-0.245,0.066-0.371c0.002-0.013,0.004-0.026,0.006-0.039
		c0.022-0.095,0.04-0.19,0.042-0.287h0.002c0.009-0.006,0.01-0.015,0.005-0.025c0.002-0.009,0.004-0.018,0.005-0.028
		c0.023-0.144,0.053-0.286,0.059-0.431c0.014-0.034,0.011-0.069,0.009-0.104c0.003,0,0.009-0.001,0.011-0.005
		C50.002,34.373,50.009,34.267,49.995,34.16z M49.231,34.346c0-0.046-0.001-0.091,0-0.137C49.23,34.255,49.231,34.3,49.231,34.346
		c0,0.05,0.002,0.1-0.001,0.149C49.233,34.446,49.231,34.396,49.231,34.346z M49.239,37.636c0.019-0.026,0.035-0.057,0.06-0.079
		C49.274,37.579,49.258,37.609,49.239,37.636z M49.483,33.486c-0.002,0.001-0.004,0.001-0.006,0.002c0-0.002,0-0.005,0.002-0.007
		c0,0,0.002,0,0.004,0.001C49.483,33.484,49.483,33.486,49.483,33.486z"/>
</g>
<path fill="#CCCCCC" d="M52.913,39.916c0-0.059-0.115-0.106-0.258-0.106h-6.65c-0.143,0-0.258,0.047-0.258,0.106l0,0
	c0,0.059,0.116,0.106,0.258,0.106h6.65C52.798,40.022,52.913,39.975,52.913,39.916L52.913,39.916z"/>
<path fill="#CCCCCC" d="M52.83,41.034c0-0.059-0.115-0.106-0.258-0.106h-6.651c-0.143,0-0.259,0.047-0.259,0.106l0,0
	c0,0.059,0.116,0.106,0.259,0.106h6.651C52.715,41.141,52.83,41.093,52.83,41.034L52.83,41.034z"/>
<path fill="#CCCCCC" d="M52.913,42.17c0-0.059-0.115-0.106-0.258-0.106h-6.65c-0.143,0-0.259,0.047-0.259,0.106l0,0
	c0,0.059,0.116,0.106,0.259,0.106h6.65C52.798,42.276,52.913,42.229,52.913,42.17L52.913,42.17z"/>
</svg>
